<!DOCTYPE svg PUBLIC "-//W3C//DTD SVG 1.1//EN" "http://www.w3.org/Graphics/SVG/1.1/DTD/svg11.dtd">
<!-- Uploaded to: SVG Repo, www.svgrepo.com, Transformed by: SVG Repo Mixer Tools -->
<svg fill="#E63946" height="800px" width="800px" version="1.1" id="Layer_1" xmlns="http://www.w3.org/2000/svg" xmlns:xlink="http://www.w3.org/1999/xlink" viewBox="0 0 511.999 511.999" xml:space="preserve" stroke="#E63946">
<g id="SVGRepo_bgCarrier" stroke-width="0"/>
<g id="SVGRepo_tracerCarrier" stroke-linecap="round" stroke-linejoin="round"/>
<g id="SVGRepo_iconCarrier"> <g> <g> <g> <path d="M244.761,212.475h22.481c19.61,26.021,61.487,12.293,61.487-20.549c0.001-32.844-41.878-46.569-61.487-20.546h-22.481 c-19.607-26.021-61.487-12.295-61.487,20.546C183.274,224.77,225.15,238.496,244.761,212.475z"/> <path d="M493.532,476.146L377.837,372.553l55.124-68.645c10.774-13.416,1.203-33.412-16.021-33.412h-30.871V119.902h48.795 c11.347,0,20.547-9.2,20.547-20.547s-9.2-20.547-20.547-20.547h-60.831L301.241,6.016c-8.017-8.018-21.035-8.024-29.058,0.001 l-16.179,16.179L239.822,6.017c-8.016-8.018-21.033-8.024-29.058-0.001l-72.792,72.792H77.142 c-11.348,0-20.547,9.2-20.547,20.547s9.2,20.547,20.547,20.547h48.795v150.592H95.065c-17.206,0-26.805,19.983-16.021,33.412 l55.124,68.645L18.472,476.145c-13.997,12.534-5.126,35.855,13.706,35.855h447.646 C498.683,512.001,507.506,488.658,493.532,476.146z M344.973,270.493H167.032V119.902h177.941V270.493z"/> </g> </g> </g> </g>
</svg>